# xmcd CD database file
#
# Track frame offsets:
#	150
#	34928
#	71881
#	119302
#	154852
#	202603
#	243290
#
# Disc length: 3494 seconds
#
# Revision: 0
# Processed by: cddbd v1.5.2PL0 Copyright (c) Steve Scherf et al.
# Submitted via: CDex 1.70beta2
#
DISCID=580da407
DTITLE=Karlheinz Miklin/Ron McClure/Billy Hart - In Between
DYEAR=2004
DGENRE=Jazz
TTITLE0=Rompin' in Pori
TTITLE1=For Billy
TTITLE2=Patagonia
TTITLE3=Desert March
TTITLE4=Joltz Waltz
TTITLE5=In Between
TTITLE6=On Request
EXTD=YEAR: 2004
EXTT0=
EXTT1=
EXTT2=
EXTT3=
EXTT4=
EXTT5=
EXTT6=
PLAYORDER=
